HIERARCHY
ROOT Hips
{
	OFFSET 0.00000 0.00000 0.00000
	CHANNELS 6 Xposition Yposition Zposition Zrotation Yrotation Xrotation 
	JOINT LHipJoint
	{
		OFFSET 0 0 0
		CHANNELS 3 Zrotation Yrotation Xrotation
		JOINT LeftHip
		{
			OFFSET 1.66553 -1.82942 0.76350
			CHANNELS 3 Zrotation Yrotation Xrotation
			JOINT LeftKnee
			{
				OFFSET 2.41740 -6.64177 0.00000
				CHANNELS 3 Zrotation Yrotation Xrotation
				JOINT LeftAnkle
				{
					OFFSET 2.71614 -7.46254 0.00000
					CHANNELS 3 Zrotation Yrotation Xrotation
					JOINT LeftToe
					{
						OFFSET 0.08005 -0.21993 1.82495
						CHANNELS 3 Zrotation Yrotation Xrotation
						End Site
						{
							OFFSET 0.00000 -0.00000 0.93441
						}
					}
				}
			}
		}
	}
	JOINT RHipJoint
	{
		OFFSET 0 0 0
		CHANNELS 3 Zrotation Yrotation Xrotation
		JOINT RightHip
		{
			OFFSET -1.63725 -1.82942 0.76350
			CHANNELS 3 Zrotation Yrotation Xrotation
			JOINT RightKnee
			{
				OFFSET -2.40538 -6.60872 0.00000
				CHANNELS 3 Zrotation Yrotation Xrotation
				JOINT RightAnkle
				{
					OFFSET -2.73312 -7.50919 0.00000
					CHANNELS 3 Zrotation Yrotation Xrotation
					JOINT RightToe
					{
						OFFSET -0.15567 -0.42769 1.93504
						CHANNELS 3 Zrotation Yrotation Xrotation
						End Site
						{
							OFFSET -0.00000 -0.00000 1.00100
						}
					}
				}
			}
		}
	}
	JOINT lowerback
	{
		OFFSET 0 0 0
		CHANNELS 3 Zrotation Yrotation Xrotation
		JOINT Chest
		{
			OFFSET 0.00326 2.30118 -0.13017
			CHANNELS 3 Zrotation Yrotation Xrotation
			JOINT Chest2
			{
				OFFSET 0.02887 2.30677 0.00834
				CHANNELS 3 Zrotation Yrotation Xrotation
				JOINT lowerneck
				{
					OFFSET 0 0 0
					CHANNELS 3 Zrotation Yrotation Xrotation
					JOINT Neck
					{
						OFFSET 0.12946 1.68326 0.00713
						CHANNELS 3 Zrotation Yrotation Xrotation
						JOINT Head
						{
							OFFSET -0.24364 1.67243 -0.16079
							CHANNELS 3 Zrotation Yrotation Xrotation
							End Site
							{
								OFFSET -0.09229 1.70819 -0.06383
							}
						}
					}
				}
				JOINT LeftCollar
				{
					OFFSET 0 0 0
					CHANNELS 3 Zrotation Yrotation Xrotation
					JOINT LeftShoulder
					{
						OFFSET 3.28104 0.69567 -0.00556
CHANNELS 3 Zrotation Xrotation Yrotation
						JOINT LeftElbow
						{
OFFSET 0 -5.707060 -0.000000
CHANNELS 3 Zrotation Xrotation Yrotation
							JOINT LeftWrist
							{
OFFSET 0 -3.332430 0.000000
CHANNELS 3 Zrotation Xrotation Yrotation
								JOINT lhand
								{
									OFFSET 0 0 0
CHANNELS 3 Zrotation Xrotation Yrotation
									JOINT LFingers
									{
OFFSET 0 -0.792690 0.000000
CHANNELS 3 Zrotation Xrotation Yrotation
										End Site
										{
OFFSET 0 -0.639090 0.000000
										}
									}
								}
								JOINT LThumb
								{
OFFSET 0 0.000000 0.000000
CHANNELS 3 Zrotation Xrotation Yrotation
									End Site
									{
OFFSET 0 -0.648840 0.648840
									}
								}
							}
						}
					}
				}
				JOINT RightCollar
				{
					OFFSET 0 0 0
					CHANNELS 3 Zrotation Yrotation Xrotation
					JOINT RightShoulder
					{
						OFFSET -3.40955 0.64424 0.14010
CHANNELS 3 Zrotation Xrotation Yrotation
						JOINT RightElbow
						{
OFFSET 0 -5.881760 -0.000000
CHANNELS 3 Zrotation Xrotation Yrotation
							JOINT RightWrist
							{
OFFSET 0 -3.281560 0.000000
CHANNELS 3 Zrotation Xrotation Yrotation
								JOINT rhand
								{
									OFFSET 0 0 0
CHANNELS 3 Zrotation Xrotation Yrotation
									JOINT RFingers
									{
OFFSET 0 -0.863130 0.000000
CHANNELS 3 Zrotation Xrotation Yrotation
										End Site
										{
OFFSET 0 -0.695870 0.000000
										}
									}
								}
								JOINT RThumb
								{
OFFSET 0 0.000000 0.000000
CHANNELS 3 Zrotation Xrotation Yrotation
									End Site
									{
OFFSET 0 -0.706500 0.706500
									}
								}
							}
						}
					}
				}
			}
		}
	}
}
MOTION
Frames: 10
Frame Time: 0.008333333333333333
-5.079560 16.525608 -3.201861 -0.320517 -6.060942 26.356920 0.000000 0.000000 0.000000 2.267194 -12.148787 -59.166186 7.020667 15.349249 48.952354 0.743785 -3.757057 -15.455996 4.532534 -12.836479 -38.760570 0.000000 0.000000 0.000000 1.245863 15.519617 -61.322113 -8.611265 -16.550954 54.735953 -1.121388 -1.766827 -20.716525 -1.267661 7.128874 -20.100851 1.787333 -1.167554 24.266952 -0.045697 -1.158805 10.716553 -0.778059 -0.533779 -1.742460 13.467334 6.831979 8.062732 -25.281445 6.048924 -28.553068 -12.256158 4.421830 -8.546372 0.000000 0.000000 0.000000 14.584216 -7.308025 -34.433537 155.289509 -35.906613 111.880470 48.773931 -27.547915 -25.716896 0.000000 0.000000 0.000000 -7.125000 0.000000 0.000000 25.918023 64.329795 -12.538814 0.000000 0.000000 0.000000 -4.015834 -13.527774 47.977258 -150.637887 -40.339930 -109.005488 -21.177069 2.902462 -5.024948 0.000000 0.000000 0.000000 7.125000 0.000000 0.000000 4.108225 24.593542 2.030694
-5.066727 16.522143 -3.207523 -0.593080 -5.697147 26.426961 0.000000 0.000000 0.000000 2.605644 -12.126675 -59.496976 7.058545 15.381021 49.095447 0.724828 -4.201817 -15.213070 4.213225 -12.438237 -37.301311 0.000000 0.000000 0.000000 1.503180 15.595455 -61.243935 -8.571656 -16.524040 54.596674 -1.081317 -2.518278 -20.700533 -1.267543 7.135739 -20.118320 1.832962 -0.980028 24.379130 0.082137 -0.897483 10.406446 -0.728287 -0.411295 -2.129235 14.104969 6.543568 8.779330 -25.957238 5.638014 -28.761742 -12.755852 4.258102 -8.791134 0.000000 0.000000 0.000000 14.779106 -7.934527 -31.832419 155.695202 -35.484878 112.117201 47.217168 -16.278430 -38.917803 0.000000 0.000000 0.000000 -7.125000 0.000000 0.000000 29.670885 78.567914 -23.523913 0.000000 0.000000 0.000000 -4.304038 -12.784833 47.143132 -151.064009 -39.963698 -109.280448 -21.682646 2.145332 -5.682498 0.000000 0.000000 0.000000 7.125000 0.000000 0.000000 3.727802 23.869751 1.904316
-5.053865 16.498990 -3.199521 -0.507373 -5.453527 25.980492 0.000000 0.000000 0.000000 2.483987 -12.386164 -59.235170 7.189005 15.488970 49.585498 0.758993 -3.863288 -15.607879 4.760058 -13.108325 -39.775474 0.000000 0.000000 0.000000 1.398968 15.433558 -60.776602 -8.579255 -16.529217 54.623345 -1.146710 -2.106163 -21.089156 -1.160073 6.837851 -19.236025 1.635772 -1.011327 24.611292 0.122772 -0.964042 10.055905 -0.549648 -0.453084 -2.626094 13.823631 6.545951 9.293957 -25.761154 5.615582 -29.278631 -12.733220 4.277005 -9.107736 0.000000 0.000000 0.000000 14.780079 -7.205489 -31.223800 155.706959 -35.472580 112.123971 45.393438 -17.995262 -38.425337 0.000000 0.000000 0.000000 -7.125000 0.000000 0.000000 23.822143 77.532440 -18.299522 0.000000 0.000000 0.000000 -4.738895 -13.071960 46.440798 -150.433315 -40.519076 -108.873004 -21.775279 1.712891 -5.785935 0.000000 0.000000 0.000000 7.125000 0.000000 0.000000 3.659030 23.754741 1.878593
-5.055566 16.492957 -3.191232 -0.749226 -5.297543 25.396041 0.000000 0.000000 0.000000 2.563646 -12.248916 -58.679339 7.236253 15.527686 49.762400 0.767227 -4.005814 -15.681344 4.791789 -13.145308 -39.915158 0.000000 0.000000 0.000000 1.826776 15.503941 -60.105019 -8.633192 -16.565772 54.812760 -1.183139 -1.946019 -21.335194 -1.047654 6.508873 -18.268400 1.546621 -1.064369 24.312886 0.097293 -1.061431 10.343899 -0.507506 -0.499149 -2.166534 14.442016 7.286883 8.346114 -26.408022 6.678117 -28.761846 -12.941439 4.772435 -8.385526 0.000000 0.000000 0.000000 14.976992 -7.474647 -30.217866 155.366236 -35.827365 111.925466 42.770134 -19.773398 -38.522733 0.000000 0.000000 0.000000 -7.125000 0.000000 0.000000 16.760029 76.816028 -12.562920 0.000000 0.000000 0.000000 -4.578723 -13.748328 46.639525 -150.410919 -40.538597 -108.858447 -21.876675 1.944917 -5.692270 0.000000 0.000000 0.000000 7.125000 0.000000 0.000000 3.583742 23.850911 1.832013
-5.045973 16.483410 -3.216518 -1.018324 -5.358521 25.125979 0.000000 0.000000 0.000000 2.769381 -12.097222 -58.572983 7.316126 15.592381 50.059987 0.772546 -4.299915 -15.712294 4.511476 -12.811439 -38.666881 0.000000 0.000000 0.000000 2.199661 15.592514 -59.896648 -8.609468 -16.549740 54.729544 -1.133183 -2.416009 -21.113089 -1.167629 6.857797 -19.295233 1.490412 -1.018882 24.460335 0.074176 -1.013958 10.217014 -0.509389 -0.479119 -2.376101 14.776246 7.591782 8.270931 -27.006225 7.076525 -28.617990 -13.212092 5.000338 -8.155264 0.000000 0.000000 0.000000 14.978793 -7.002769 -29.953655 155.597413 -35.587052 112.060314 37.000385 -26.255485 -36.941272 0.000000 0.000000 0.000000 -7.125000 0.000000 0.000000 5.201682 73.199284 -3.491634 0.000000 0.000000 0.000000 -4.327170 -13.087805 47.065499 -150.791594 -40.205138 -109.104983 -22.618262 1.716776 -6.136783 0.000000 0.000000 0.000000 7.125000 0.000000 0.000000 3.036189 23.338169 1.587105
-5.024642 16.478047 -3.270418 -1.085701 -5.349677 25.125145 0.000000 0.000000 0.000000 2.820527 -12.032106 -58.906044 7.333079 15.606098 50.123134 0.755081 -4.469729 -15.517341 4.440301 -12.723952 -38.344320 0.000000 0.000000 0.000000 2.084131 15.660130 -60.069979 -8.615522 -16.553812 54.750784 -1.136418 -2.135862 -21.012357 -1.125185 6.737630 -18.940289 1.528736 -1.047890 24.511802 0.021143 -1.041112 9.995589 -0.578692 -0.492253 -2.646453 14.786978 7.597119 8.430029 -27.031699 7.118432 -28.436284 -13.212302 5.027176 -8.113499 0.000000 0.000000 0.000000 14.917215 -6.587448 -29.754069 155.740539 -35.437429 112.143506 44.596361 -18.907122 -37.963912 0.000000 0.000000 0.000000 -7.125000 0.000000 0.000000 21.525553 76.797188 -16.185447 0.000000 0.000000 0.000000 -4.219803 -12.512829 47.093248 -150.731323 -40.258197 -109.066133 -22.647593 2.232684 -6.381230 0.000000 0.000000 0.000000 7.125000 0.000000 0.000000 3.016727 23.072793 1.595370
-4.996667 16.469562 -3.337239 -1.280330 -5.785955 25.220862 0.000000 0.000000 0.000000 2.880709 -11.767812 -59.165094 7.326331 15.600632 50.098097 0.724511 -4.176101 -15.211213 4.506735 -12.805796 -38.645717 0.000000 0.000000 0.000000 2.046124 15.842335 -60.600359 -8.646351 -16.574661 54.858733 -1.081386 -1.733326 -20.341862 -1.016924 6.415516 -17.995022 1.377830 -0.920506 24.169975 -0.086254 -0.932361 10.347310 -0.643108 -0.438557 -2.092159 15.062338 7.392664 7.758422 -27.245978 6.707303 -28.622755 -13.336345 4.787218 -8.113035 0.000000 0.000000 0.000000 14.899158 -7.452629 -29.817737 155.520983 -35.666725 112.015868 42.478488 -20.547809 -36.872566 0.000000 0.000000 0.000000 -7.125000 0.000000 0.000000 16.327045 74.953208 -11.599275 0.000000 0.000000 0.000000 -4.311745 -13.795523 46.655891 -150.612717 -40.362393 -108.989378 -22.969570 1.360462 -6.284372 0.000000 0.000000 0.000000 7.125000 0.000000 0.000000 2.778205 23.161123 1.463223
-4.943261 16.459245 -3.435947 -1.310848 -5.821028 25.212358 0.000000 0.000000 0.000000 3.055202 -12.069537 -59.679733 7.408579 15.666543 50.403261 0.706976 -3.948007 -15.038892 4.523953 -12.826687 -38.723132 0.000000 0.000000 0.000000 1.880013 15.894036 -60.812081 -8.579781 -16.529576 54.625172 -0.988297 -2.444441 -19.810848 -1.336498 7.317059 -20.659557 1.176006 -0.951371 24.504393 -0.003631 -1.003480 10.207015 -0.415928 -0.482449 -2.405671 15.554912 7.262160 8.586461 -27.499983 6.627437 -28.821141 -13.647125 4.758878 -8.323989 0.000000 0.000000 0.000000 14.522247 -6.788738 -30.141267 155.716621 -35.462446 112.129626 42.593105 -21.988258 -35.898364 0.000000 0.000000 0.000000 -7.125000 0.000000 0.000000 16.671359 73.933419 -11.481668 0.000000 0.000000 0.000000 -4.310385 -13.108652 47.221888 -150.877838 -40.128873 -109.160623 -23.433585 1.524579 -6.788163 0.000000 0.000000 0.000000 7.125000 0.000000 0.000000 2.444397 22.589968 1.319025
-4.835817 16.447218 -3.554336 -1.650069 -5.552121 24.766957 0.000000 0.000000 0.000000 3.371195 -12.509601 -59.870993 7.489612 15.730668 50.702657 0.681978 -3.903834 -14.766833 4.343581 -12.604019 -37.903784 0.000000 0.000000 0.000000 2.272264 15.626395 -60.249536 -8.172445 -16.244566 53.181373 -0.721263 -4.434947 -18.259026 -2.466993 9.772987 -28.248580 1.679701 -1.166227 25.290912 -0.006915 -1.156102 10.592515 -0.660100 -0.542743 -2.368710 15.703432 7.562316 7.175308 -27.126989 7.109604 -28.089605 -13.264646 4.875954 -7.683714 0.000000 0.000000 0.000000 14.592111 -7.359936 -30.081876 155.766210 -35.410461 112.158355 44.045981 -19.544734 -37.957076 0.000000 0.000000 0.000000 -7.125000 0.000000 0.000000 20.102698 76.617840 -15.033991 0.000000 0.000000 0.000000 -4.167890 -13.862581 47.220738 -151.090852 -39.939828 -109.297617 -23.552429 2.205296 -5.730898 0.000000 0.000000 0.000000 7.125000 0.000000 0.000000 2.340110 23.732931 1.201362
-4.724740 16.446899 -3.675488 -1.884191 -5.779029 24.716322 0.000000 0.000000 0.000000 3.222392 -12.308946 -60.326457 7.455314 15.703570 50.575988 0.684851 -3.262856 -14.866453 5.147972 -13.548499 -41.457965 0.000000 0.000000 0.000000 1.582460 16.316937 -59.951121 -7.972517 -16.098934 52.463542 -0.953616 -2.772559 -19.644474 -1.040000 6.485902 -18.200884 1.474389 -0.876742 25.771973 0.144094 -0.823520 10.580552 -0.462587 -0.392819 -2.599509 15.652412 7.395873 7.227012 -27.274849 6.848840 -27.900286 -13.309185 4.768786 -7.692204 0.000000 0.000000 0.000000 14.448448 -7.262647 -30.354639 155.269842 -35.926893 111.868938 43.997438 -19.021615 -37.880771 0.000000 0.000000 0.000000 -7.125000 0.000000 0.000000 19.937173 76.522475 -14.856649 0.000000 0.000000 0.000000 -4.245883 -13.622756 46.826220 -150.941876 -40.072321 -109.201865 -23.164196 2.401119 -6.527750 0.000000 0.000000 0.000000 7.125000 0.000000 0.000000 2.638010 22.887319 1.405797
